<svg width="178" height="94" viewBox="0 0 178 94" fill="none" xmlns="http://www.w3.org/2000/svg">
<path fill-rule="evenodd" clip-rule="evenodd" d="M64.193 73.0911C64.3649 74.2752 66.0695 74.3041 69.3067 73.1777L69.6504 73.0044C69.851 72.8889 70.0945 72.7589 70.381 72.6145C70.6674 72.4701 70.9969 72.3113 71.3693 72.138C71.7417 71.9647 72.0998 71.7914 72.4436 71.6181C72.7874 71.4448 73.1025 71.2715 73.389 71.0983L74.0765 70.7517L74.3343 70.6217C74.7354 70.5639 75.0219 70.5495 75.1938 70.5784C75.3943 70.6073 75.7094 70.6795 76.1391 70.795C76.5689 70.9394 76.8697 71.0261 77.0415 71.0549C78.5885 71.3726 80.0782 71.6181 81.5106 71.7914C82.9716 71.9647 84.2608 72.1091 85.378 72.2246C86.3113 72.3211 87.2945 72.337 88.3277 72.2723C89.3609 72.337 90.344 72.3211 91.2773 72.2246C92.3945 72.1091 93.6837 71.9647 95.1447 71.7914C96.5771 71.6181 98.0668 71.3726 99.6138 71.0549C99.7856 71.0261 100.086 70.9394 100.516 70.795C100.946 70.6795 101.261 70.6073 101.462 70.5784C101.633 70.5495 101.92 70.5639 102.321 70.6217L102.579 70.7517L103.266 71.0983C103.553 71.2715 103.868 71.4448 104.212 71.6181C104.555 71.7914 104.914 71.9647 105.286 72.138C105.658 72.3113 105.988 72.4701 106.274 72.6145C106.561 72.7589 106.804 72.8889 107.005 73.0044L107.349 73.1777C110.586 74.3041 112.29 74.2752 112.462 73.0911C112.462 71.9936 111.746 71.1271 110.314 70.4918C108.853 69.8564 106.991 69.5387 104.727 69.5387C104.555 69.5098 104.384 69.4376 104.212 69.3221C104.011 69.1777 103.782 68.961 103.524 68.6722L103.43 68.5669C103.38 68.5116 103.333 68.4593 103.288 68.4101L103.555 68.2823C104.73 67.7047 105.374 67.387 105.489 67.3292C108.354 65.9718 111.089 63.8202 113.696 60.8743C116.332 57.8995 118.423 54.8814 119.97 51.82C121.546 48.7297 122.634 45.856 123.236 43.1989C123.744 40.9131 124.102 38.7778 124.312 36.793L124.322 36.744C124.781 34.4623 124.766 31.8197 124.279 28.816C124.178 28.2249 124.055 27.6321 123.912 27.0376C123.779 26.4267 123.626 25.8209 123.451 25.2203C122.677 22.5632 121.56 20.0506 120.099 17.6823C118.667 15.2852 116.733 12.6425 114.298 9.75439C115.157 8.83019 116.461 7.70382 118.208 6.37528C119.956 5.01786 121.345 4.16586 122.377 3.81929C122.634 3.73264 122.978 3.646 123.408 3.55936C123.838 3.44383 124.153 3.34275 124.353 3.2561C124.554 3.14058 124.654 2.99617 124.654 2.82288C124.597 2.21638 123.394 2.21638 121.044 2.82288C120.128 3.1117 118.939 3.68932 117.478 4.55576C116.017 5.4222 114.756 6.21643 113.696 6.93847C112.665 7.63162 112.121 7.97819 112.063 7.97819L111.032 7.02511C108.74 5.37888 106.434 4.05034 104.114 3.03949C101.822 1.99977 99.5014 1.29217 97.1523 0.916718C96.6225 0.824407 96.1256 0.740375 95.6615 0.664622C93.4165 0.181862 91.2388 -0.0373625 89.1287 0.00695711C88.8527 0.010989 88.5858 0.0155838 88.3277 0.0207414C88.0696 0.0155838 87.8026 0.010989 87.5266 0.00695711C85.4165 -0.0373625 83.2389 0.181858 80.9938 0.664618C80.5298 0.740371 80.0328 0.824407 79.5031 0.916718C77.1539 1.29217 74.8335 1.99977 72.5417 3.03949C70.2212 4.05034 67.915 5.37888 65.6232 7.02511L64.5919 7.97819C64.5346 7.97819 63.9903 7.63162 62.959 6.93847C61.899 6.21643 60.6385 5.4222 59.1775 4.55576C57.7165 3.68932 56.5276 3.1117 55.6108 2.82288C53.2617 2.21638 52.0585 2.21638 52.0012 2.82288C52.0012 2.99617 52.1015 3.14058 52.302 3.2561C52.5026 3.34275 52.8177 3.44383 53.2474 3.55936C53.6771 3.646 54.0209 3.73264 54.2787 3.81929C55.31 4.16586 56.6995 5.01786 58.447 6.37528C60.1945 7.70382 61.498 8.83019 62.3574 9.75439C59.9223 12.6425 57.9886 15.2852 56.5562 17.6823C55.0952 20.0506 53.9779 22.5632 53.2044 25.2203C53.0298 25.8202 52.8763 26.4253 52.7441 27.0355C52.6002 27.6307 52.4775 28.2242 52.3759 28.816C51.8888 31.8197 51.8745 34.4623 52.3329 36.744L52.3436 36.7931C52.5528 38.7778 52.9114 40.9131 53.4193 43.1989C54.0209 45.856 55.1095 48.7297 56.6851 51.82C58.2321 54.8814 60.3234 57.8995 62.959 60.8743C65.5659 63.8202 68.3018 65.9718 71.1666 67.3292C71.2812 67.387 71.9257 67.7047 73.1003 68.2823L73.3675 68.4101C73.335 68.4457 73.3013 68.4829 73.2663 68.5217L73.2276 68.5645L73.1311 68.6722C72.8733 68.961 72.6441 69.1777 72.4436 69.3221C72.2717 69.4376 72.0998 69.5098 71.9279 69.5387C69.6648 69.5387 67.8027 69.8564 66.3416 70.4918C64.9092 71.1271 64.193 71.9936 64.193 73.0911ZM74.5182 67.03C73.8685 66.682 73.1954 66.3052 72.4987 65.8996C70.035 64.4844 67.7861 62.6649 65.7521 60.4411C63.6895 58.2172 62.0566 55.9789 60.8534 53.7262C59.6215 51.4445 58.6618 49.4373 57.9743 47.7044C57.8094 47.2889 57.6569 46.8866 57.5167 46.4976C57.828 46.7898 58.1484 47.0621 58.4778 47.3145C59.9102 48.412 61.3712 49.1485 62.8609 49.5239C65.4965 50.1593 67.9745 50.2748 70.295 49.8705C72.6441 49.4662 74.7927 48.7153 76.7408 47.6178C78.7174 46.5203 80.4506 45.2062 81.9403 43.6755C82.5253 43.063 83.0683 42.4417 83.5693 41.8115L83.8862 42.4191C85.0832 44.7321 86.0342 46.5685 86.7391 47.9283L86.1086 49.134C82.2411 56.441 78.5169 62.2173 74.9359 66.4628C74.9104 66.5143 74.7712 66.7033 74.5182 67.03ZM75.4918 69.3691C75.4397 69.3851 75.3977 69.3838 75.3657 69.3654C76.0819 69.9141 76.884 70.2463 77.7721 70.3618L77.8519 70.3724C77.6445 70.2908 77.4214 70.2006 77.1826 70.1019C76.4025 69.759 75.8389 69.5148 75.4918 69.3691ZM88.3277 70.9832C86.6052 70.9121 84.9957 70.7194 83.4994 70.4051C81.4368 69.943 79.6033 69.3798 77.999 68.7156C77.5984 68.5455 77.1856 68.3606 76.7608 68.161C77.7618 66.9682 79.2735 64.9004 81.2957 61.9573C84.5046 57.2874 86.8486 53.619 88.3277 50.9522C89.8067 53.619 92.1507 57.2874 95.3596 61.9573C97.3818 64.9004 98.8935 66.9682 99.8945 68.161C99.4697 68.3606 99.0569 68.5455 98.6563 68.7156C97.052 69.3798 95.2185 69.943 93.1559 70.4051C91.6596 70.7194 90.0502 70.9121 88.3277 70.9832ZM98.8034 70.3724L98.8832 70.3618C99.7713 70.2463 100.573 69.9141 101.29 69.3654C101.258 69.3838 101.216 69.3851 101.164 69.3691C100.816 69.5148 100.253 69.759 99.4727 70.1019C99.2339 70.2006 99.0108 70.2908 98.8034 70.3724ZM102.137 67.03C102.787 66.682 103.46 66.3052 104.157 65.8996C106.62 64.4844 108.869 62.6649 110.903 60.4411C112.966 58.2172 114.599 55.9789 115.802 53.7262C117.034 51.4445 117.993 49.4373 118.681 47.7044C118.846 47.2889 118.998 46.8866 119.139 46.4976C118.827 46.7898 118.507 47.0621 118.177 47.3145C116.745 48.412 115.284 49.1485 113.794 49.5239C111.159 50.1593 108.681 50.2748 106.36 49.8705C104.011 49.4662 101.863 48.7153 99.9146 47.6178C97.9379 46.5203 96.2047 45.2062 94.715 43.6755C94.13 43.063 93.587 42.4417 93.086 41.8115L92.7692 42.4191C91.5721 44.7321 90.6211 46.5685 89.9162 47.9283L90.5468 49.134C94.4142 56.441 98.1384 62.2173 101.719 66.4628C101.745 66.5143 101.884 66.7033 102.137 67.03ZM88.3277 44.8923C89.8236 42.0348 90.8139 40.1477 91.2986 39.2312C91.2181 39.0957 91.1394 38.9597 91.0624 38.8234C90.117 37.1483 89.5011 35.5309 89.2146 33.9714C88.613 32.0074 88.5844 30.65 89.1287 29.8991C89.5584 29.2926 90.1457 29.1482 90.8905 29.4659C91.6067 29.7547 91.9648 30.289 91.9648 31.0688C91.9648 31.3576 91.8932 31.7908 91.75 32.3684C91.5781 32.9172 91.4921 33.4226 91.4921 33.8847C91.4635 34.3179 91.5924 35.1699 91.8789 36.4407C91.9751 36.7802 92.0847 37.1181 92.2079 37.4545C95.0226 31.9972 97.6734 27.2837 100.16 23.3142C102.939 18.8953 106.148 14.7653 109.786 10.9241C110.054 10.6461 110.292 10.3924 110.503 10.163C108.401 8.20147 106.261 6.60677 104.083 5.37888C101.39 3.87705 98.74 2.76512 96.1331 2.04309C93.6648 1.36689 91.2593 1.00734 88.9166 0.964413C88.7212 0.961967 88.5249 0.960546 88.3277 0.960153C88.1305 0.960546 87.9341 0.961957 87.7387 0.964404C85.396 1.00733 82.9905 1.36689 80.5222 2.04309C77.9153 2.76512 75.2654 3.87705 72.5725 5.37888C70.3942 6.60677 68.2542 8.20147 66.1526 10.163C66.3628 10.3924 66.6018 10.6461 66.8694 10.9241C70.5077 14.7653 73.7162 18.8953 76.495 23.3142C78.9819 27.2837 81.6327 31.9972 84.4474 37.4545C84.5706 37.1181 84.6802 36.7802 84.7764 36.4407C85.0629 35.1699 85.1918 34.3179 85.1632 33.8847C85.1632 33.4226 85.0772 32.9172 84.9053 32.3684C84.7621 31.7908 84.6905 31.3576 84.6905 31.0688C84.6905 30.289 85.0486 29.7547 85.7648 29.4659C86.5096 29.1482 87.0969 29.2926 87.5266 29.8991C88.0709 30.65 88.0423 32.0074 87.4407 33.9714C87.1542 35.5309 86.5383 37.1483 85.5929 38.8234C85.516 38.9597 85.4372 39.0957 85.3567 39.2312C85.8414 40.1477 86.8317 42.0348 88.3277 44.8923ZM82.9091 40.5483C81.2447 37.3699 79.8228 34.701 78.6436 32.5417C77.2399 29.9713 75.7788 27.4586 74.2605 25.0037C72.6276 22.3755 70.5363 19.2708 67.9867 15.6895C66.6313 13.7704 65.5593 12.3776 64.7706 11.5113L64.7517 11.5306C62.202 14.1299 59.9389 17.148 57.9622 20.5849C57.0068 22.2486 56.2306 23.916 55.6336 25.5871C54.7357 30.4186 55.0332 36.2432 56.5259 43.0611C57.0478 43.939 57.6412 44.7503 58.3059 45.495C59.8816 47.199 61.672 48.2965 63.6774 48.7875C66.2557 49.3651 68.7051 49.4084 71.0255 48.9174C73.346 48.3976 75.4373 47.5022 77.2994 46.2315C79.1901 44.9607 80.7801 43.4733 82.0692 41.7693C82.3703 41.3647 82.6502 40.9576 82.9091 40.5483ZM111.885 11.5113C111.096 12.3776 110.024 13.7704 108.669 15.6895C106.119 19.2708 104.028 22.3755 102.395 25.0037C100.876 27.4586 99.4154 29.9713 98.0117 32.5417C96.8325 34.701 95.4107 37.3699 93.7462 40.5483C94.0051 40.9576 94.285 41.3647 94.5861 41.7693C95.8752 43.4733 97.4652 44.9607 99.3559 46.2315C101.218 47.5022 103.309 48.3976 105.63 48.9174C107.95 49.4084 110.4 49.3651 112.978 48.7875C114.983 48.2965 116.774 47.199 118.349 45.495C119.014 44.7504 119.607 43.939 120.129 43.0611C121.622 36.2433 121.92 30.4186 121.022 25.587C120.425 23.916 119.649 22.2486 118.693 20.5849C116.716 17.148 114.453 14.1299 111.904 11.5306L111.885 11.5113ZM67.5878 72.7012C66.3273 73.2788 65.6398 73.3799 65.5252 73.0044C65.4392 72.86 65.5108 72.5568 65.74 72.0947C65.9978 71.6326 66.1841 71.3726 66.2987 71.3149C66.3846 71.2571 66.5135 71.1993 66.6854 71.1416C68.0318 70.6217 69.364 70.3329 70.6818 70.2751C71.3407 70.2463 71.4696 70.3907 71.0685 70.7084C70.0372 71.4593 68.8769 72.1235 67.5878 72.7012ZM109.068 72.7012C110.328 73.2788 111.016 73.3799 111.13 73.0044C111.216 72.86 111.144 72.5568 110.915 72.0947C110.657 71.6326 110.471 71.3726 110.357 71.3149C110.271 71.2571 110.142 71.1993 109.97 71.1416C108.623 70.6217 107.291 70.3329 105.974 70.2751C105.315 70.2463 105.186 70.3907 105.587 70.7084C106.618 71.4593 107.778 72.1235 109.068 72.7012ZM76.3345 92.8344C75.7107 93.0627 75.3822 93.0569 75.3491 92.8168C75.3491 92.5944 75.4871 92.4188 75.7631 92.29C76.0447 92.1612 76.4035 92.0968 76.8396 92.0968C76.8727 92.0909 76.9058 92.0763 76.9389 92.0529C76.9776 92.0236 77.0218 91.9797 77.0714 91.9211C77.1211 91.8626 77.1598 91.8187 77.1874 91.7894C77.215 91.7543 77.2591 91.6957 77.3198 91.6138C77.3806 91.5318 77.4137 91.485 77.4192 91.4733C78.1092 90.6127 78.8269 89.4418 79.5721 87.9607C80.1075 86.8835 80.4415 86.2132 80.574 85.9497C81.1812 84.6911 81.7498 83.6168 82.2797 82.7269C82.8152 81.8312 83.4335 80.9941 84.1345 80.2154C84.3167 80.0164 84.4299 79.8788 84.474 79.8027L84.2173 79.5305C83.5936 79.0504 82.9422 78.7079 82.2632 78.503C81.5842 78.2981 80.8224 78.1957 79.9778 78.1957C79.4976 78.1957 79.0035 78.2689 78.4956 78.4152C77.9933 78.5616 77.4827 78.787 76.9638 79.0914C76.4504 79.3958 75.9481 79.8115 75.4568 80.3384C74.9655 80.8653 74.5294 81.477 74.1485 82.1737C73.7841 82.8411 73.5551 83.5114 73.4612 84.1847C73.3729 84.8579 73.4005 85.4463 73.544 85.9497C73.6931 86.4473 73.9166 86.8718 74.2147 87.223C74.5183 87.5685 74.8633 87.7909 75.2498 87.8904C75.7466 88.0075 76.2186 88.0163 76.6657 87.9168C77.1128 87.8114 77.5158 87.6299 77.8746 87.3723C78.239 87.1147 78.5453 86.8132 78.7937 86.4678C79.0421 86.1166 79.216 85.7565 79.3154 85.3877C79.3706 85.1301 79.3954 84.9574 79.3899 84.8696C79.3899 84.7759 79.3734 84.6735 79.3402 84.5623C79.3126 84.4452 79.2988 84.3574 79.2988 84.2988C79.2988 84.1407 79.3678 84.0324 79.5058 83.9739C79.6494 83.9095 79.7625 83.9388 79.8453 84.0617C79.9502 84.2139 79.9447 84.4891 79.8288 84.8872C79.7736 85.2033 79.6549 85.5312 79.4727 85.8707C79.2906 86.2103 79.0559 86.5381 78.7689 86.8542C78.4818 87.1645 78.1479 87.4309 77.767 87.6533C77.3916 87.8758 76.9776 88.028 76.5249 88.11C76.0778 88.1919 75.6003 88.1685 75.0924 88.0397C74.8054 87.9636 74.5239 87.8143 74.2478 87.5919C73.9718 87.3694 73.729 87.0708 73.5192 86.6962C73.3094 86.3215 73.1576 85.9058 73.0638 85.4492C72.9754 84.9867 72.9782 84.451 73.072 83.8422C73.1714 83.2333 73.3757 82.6157 73.6848 81.9893C74.0105 81.3395 74.4217 80.754 74.9185 80.233C75.4154 79.7061 75.9398 79.2846 76.4918 78.9685C77.0494 78.6465 77.6152 78.4035 78.1893 78.2396C78.7634 78.0698 79.3154 77.9908 79.8453 78.0025C80.2262 78.0084 80.5188 78.0201 80.7231 78.0376C80.9273 78.0552 81.253 78.1049 81.7001 78.1869C82.1528 78.263 82.5999 78.4064 83.0415 78.6172C83.4887 78.8221 83.9331 79.0914 84.3747 79.4251L84.5734 79.6183C84.5844 79.6183 84.6893 79.548 84.888 79.4075C85.0923 79.2612 85.3352 79.1002 85.6167 78.9246C85.8982 78.7489 86.1273 78.6318 86.304 78.5733C86.7566 78.4504 86.9885 78.4504 86.9995 78.5733C86.9995 78.6084 86.9802 78.6377 86.9416 78.6611C86.9029 78.6787 86.8422 78.6992 86.7594 78.7226C86.6766 78.7401 86.6104 78.7577 86.5607 78.7753C86.3619 78.8455 86.0942 79.0182 85.7575 79.2934C85.4207 79.5627 85.1696 79.791 85.004 79.9783C85.4732 80.5638 85.8458 81.0994 86.1218 81.5853C86.4033 82.0654 86.6186 82.5747 86.7677 83.1133C86.9167 83.6519 86.9857 84.211 86.9747 84.7906C86.9636 85.3702 86.8808 86.0258 86.7263 86.7576C86.6104 87.2962 86.4006 87.8787 86.097 88.5051C85.7989 89.1257 85.3959 89.7375 84.888 90.3405C84.3857 90.9376 83.8585 91.3738 83.3065 91.6489L83.2232 91.6923L82.9339 91.8421C82.7131 91.9533 82.5806 92.0177 82.5364 92.0353C82.4923 92.0529 82.3625 92.1114 82.1473 92.2109C81.932 92.3046 81.7829 92.3602 81.7001 92.3778C81.6173 92.3953 81.4655 92.4363 81.2447 92.5007C81.0239 92.5651 80.8417 92.6002 80.6982 92.6061C80.5547 92.6119 80.3615 92.6236 80.1186 92.6412C79.8757 92.6646 79.6466 92.6646 79.4313 92.6412C79.216 92.6178 78.9676 92.5885 78.6861 92.5534C78.4101 92.5183 78.123 92.4685 77.8249 92.4041C77.7918 92.3983 77.7339 92.3807 77.6511 92.3514C77.5683 92.328 77.5075 92.3134 77.4689 92.3075C77.4358 92.3017 77.3806 92.3046 77.3033 92.3163L77.2536 92.3426L77.1211 92.4129C77.0659 92.448 77.0052 92.4831 76.9389 92.5183C76.8727 92.5534 76.8037 92.5885 76.7319 92.6236C76.7094 92.6347 76.6877 92.6454 76.6668 92.6559C76.6477 92.6654 76.6294 92.6747 76.6117 92.6837C76.587 92.6964 76.5636 92.7085 76.5415 92.7202C76.4863 92.7495 76.4394 92.7759 76.4007 92.7993L76.3345 92.8344ZM77.9657 92.2636C78.5895 92.3514 79.1387 92.3953 79.6135 92.3953C80.0938 92.4012 80.5326 92.3602 80.9301 92.2724C81.3275 92.1787 81.6808 92.0646 81.9899 91.9299C82.3046 91.7894 82.6579 91.5991 83.0498 91.3591C83.5246 91.0723 83.9579 90.7034 84.3498 90.2527C84.7473 89.8019 85.0619 89.3482 85.2938 88.8915C85.5312 88.429 85.7161 88.0222 85.8486 87.6709C85.981 87.3196 86.0721 87.0152 86.1218 86.7576C86.4254 85.3116 86.4779 84.0851 86.2791 83.0782C86.0859 82.0713 85.5974 81.0848 84.8135 80.1188C84.7086 80.0954 84.4106 80.4496 83.9193 81.1814C83.428 81.9073 83.025 82.5367 82.7103 83.0694C82.4178 83.567 82.1362 84.0764 81.8657 84.5974C81.5952 85.1184 81.2585 85.7858 80.8555 86.5996C80.4581 87.4075 80.2014 87.9285 80.0855 88.1627C79.8095 88.713 79.3292 89.5121 78.6447 90.56C77.9602 91.6079 77.5793 92.1085 77.502 92.0616C77.64 92.1729 77.7946 92.2402 77.9657 92.2636ZM75.6058 92.7993C75.6279 92.8754 75.7604 92.8549 76.0033 92.7378C76.2517 92.6207 76.4753 92.4861 76.674 92.3339C76.7513 92.2695 76.7264 92.2402 76.5995 92.246C76.3455 92.2578 76.0888 92.3163 75.8294 92.4217C75.7963 92.4334 75.7714 92.4451 75.7549 92.4568C75.7328 92.4685 75.6969 92.5212 75.6472 92.6149C75.6031 92.7085 75.5893 92.77 75.6058 92.7993ZM92.3491 92.8168C92.3822 93.0569 92.7107 93.0627 93.3345 92.8344L93.4007 92.7993C93.4394 92.7759 93.4863 92.7495 93.5415 92.7202C93.5967 92.691 93.6602 92.6588 93.7319 92.6236C93.8037 92.5885 93.8727 92.5534 93.9389 92.5183C93.9588 92.5077 93.9782 92.4972 93.9971 92.4867C94.011 92.4789 94.0247 92.4711 94.0381 92.4633C94.067 92.4465 94.0947 92.4297 94.1211 92.4129L94.2536 92.3426L94.3033 92.3163C94.3806 92.3046 94.4358 92.3017 94.4689 92.3075C94.5075 92.3134 94.5683 92.328 94.6511 92.3514C94.7339 92.3807 94.7918 92.3983 94.8249 92.4041C95.123 92.4685 95.4101 92.5183 95.6861 92.5534C95.9676 92.5885 96.216 92.6178 96.4313 92.6412C96.6466 92.6646 96.8757 92.6646 97.1186 92.6412C97.3615 92.6236 97.5547 92.6119 97.6982 92.6061C97.8417 92.6002 98.0239 92.5651 98.2447 92.5007C98.4655 92.4363 98.6173 92.3953 98.7001 92.3778C98.7829 92.3602 98.932 92.3046 99.1473 92.2109C99.3625 92.1114 99.4923 92.0529 99.5364 92.0353C99.5806 92.0177 99.7131 91.9533 99.9339 91.8421C100.16 91.725 100.284 91.6606 100.307 91.6489C100.859 91.3738 101.386 90.9376 101.888 90.3405C102.396 89.7375 102.799 89.1257 103.097 88.5051C103.401 87.8787 103.61 87.2962 103.726 86.7576C103.881 86.0258 103.964 85.3702 103.975 84.7906C103.986 84.211 103.917 83.6519 103.768 83.1133C103.619 82.5747 103.403 82.0654 103.122 81.5853C102.846 81.0994 102.473 80.5638 102.004 79.9783C102.17 79.791 102.421 79.5627 102.757 79.2934C103.094 79.0182 103.362 78.8455 103.561 78.7753C103.61 78.7577 103.677 78.7401 103.759 78.7226C103.842 78.6992 103.903 78.6787 103.942 78.6611C103.98 78.6377 104 78.6084 104 78.5733C103.988 78.4504 103.757 78.4504 103.304 78.5733C103.127 78.6318 102.898 78.7489 102.617 78.9246C102.335 79.1002 102.092 79.2612 101.888 79.4075C101.689 79.548 101.584 79.6183 101.573 79.6183L101.375 79.4251C100.933 79.0914 100.489 78.8221 100.042 78.6172C99.5999 78.4064 99.1528 78.263 98.7001 78.1869C98.253 78.1049 97.9273 78.0552 97.7231 78.0376C97.5188 78.0201 97.2262 78.0084 96.8453 78.0025C96.3154 77.9908 95.7634 78.0698 95.1893 78.2396C94.6152 78.4035 94.0494 78.6465 93.4918 78.9685C92.9398 79.2846 92.4154 79.7061 91.9185 80.233C91.4217 80.754 91.0105 81.3395 90.6848 81.9893C90.3757 82.6157 90.1714 83.2333 90.072 83.8422C89.9782 84.451 89.9754 84.9867 90.0638 85.4492C90.1576 85.9058 90.3094 86.3215 90.5192 86.6962C90.729 87.0708 90.9718 87.3694 91.2478 87.5919C91.5239 87.8143 91.8054 87.9636 92.0924 88.0397C92.6003 88.1685 93.0778 88.1919 93.5249 88.11C93.9776 88.028 94.3916 87.8758 94.767 87.6533C95.1479 87.4309 95.4818 87.1645 95.7689 86.8542C96.0559 86.5381 96.2906 86.2103 96.4727 85.8707C96.6549 85.5312 96.7736 85.2033 96.8288 84.8872C96.9447 84.4891 96.9502 84.2139 96.8453 84.0617C96.7625 83.9388 96.6494 83.9095 96.5058 83.9739C96.3678 84.0324 96.2988 84.1407 96.2988 84.2988C96.2988 84.3574 96.3126 84.4452 96.3402 84.5623C96.3734 84.6735 96.3899 84.7759 96.3899 84.8696C96.3954 84.9574 96.3706 85.1301 96.3154 85.3877C96.216 85.7565 96.0421 86.1166 95.7937 86.4678C95.5453 86.8132 95.239 87.1147 94.8746 87.3723C94.5158 87.6299 94.1128 87.8114 93.6657 87.9168C93.2186 88.0163 92.7466 88.0075 92.2498 87.8904C91.8633 87.7909 91.5183 87.5685 91.2147 87.223C90.9166 86.8718 90.6931 86.4473 90.544 85.9497C90.4005 85.4463 90.3729 84.8579 90.4612 84.1847C90.5551 83.5114 90.7841 82.8411 91.1485 82.1737C91.5294 81.477 91.9655 80.8653 92.4568 80.3384C92.9481 79.8115 93.4504 79.3958 93.9638 79.0914C94.4827 78.787 94.9933 78.5616 95.4956 78.4152C96.0035 78.2689 96.4976 78.1957 96.9778 78.1957C97.8224 78.1957 98.5842 78.2981 99.2632 78.503C99.9422 78.7079 100.594 79.0504 101.217 79.5305L101.474 79.8027C101.43 79.8788 101.317 80.0164 101.135 80.2154C100.433 80.9941 99.8152 81.8312 99.2797 82.7269C98.7498 83.6168 98.1812 84.6911 97.574 85.9497C97.4415 86.2132 97.1075 86.8835 96.5721 87.9607C95.8269 89.4418 95.1092 90.6127 94.4192 91.4733C94.4137 91.485 94.3806 91.5318 94.3198 91.6138C94.2591 91.6957 94.215 91.7543 94.1874 91.7894C94.1598 91.8187 94.1211 91.8626 94.0714 91.9211C94.0218 91.9797 93.9776 92.0236 93.9389 92.0529C93.9058 92.0763 93.8727 92.0909 93.8396 92.0968C93.4035 92.0968 93.0447 92.1612 92.7631 92.29C92.4871 92.4188 92.3491 92.5944 92.3491 92.8168ZM96.6135 92.3953C96.1387 92.3953 95.5895 92.3514 94.9657 92.2636C94.7946 92.2402 94.64 92.1729 94.502 92.0616C94.5793 92.1085 94.9602 91.6079 95.6447 90.56C96.3292 89.5121 96.8095 88.713 97.0855 88.1627C97.2014 87.9285 97.4581 87.4075 97.8555 86.5996C98.2585 85.7858 98.5952 85.1184 98.8657 84.5974C99.1362 84.0764 99.4178 83.567 99.7103 83.0694C100.025 82.5367 100.428 81.9073 100.919 81.1814C101.411 80.4496 101.709 80.0954 101.814 80.1188C102.597 81.0848 103.086 82.0713 103.279 83.0782C103.478 84.0851 103.425 85.3116 103.122 86.7576C103.072 87.0152 102.981 87.3196 102.849 87.6709C102.716 88.0222 102.531 88.429 102.294 88.8915C102.062 89.3482 101.747 89.8019 101.35 90.2527C100.958 90.7034 100.525 91.0723 100.05 91.3591C99.6579 91.5991 99.3046 91.7894 98.9899 91.9299C98.6808 92.0646 98.3275 92.1787 97.9301 92.2724C97.5326 92.3602 97.0938 92.4012 96.6135 92.3953ZM93.0033 92.7378C92.7604 92.8549 92.6279 92.8754 92.6058 92.7993C92.5893 92.77 92.6031 92.7085 92.6472 92.6149C92.6969 92.5212 92.7328 92.4685 92.7549 92.4568C92.7714 92.4451 92.7963 92.4334 92.8294 92.4217C93.0888 92.3163 93.3455 92.2578 93.5995 92.246C93.7264 92.2402 93.7513 92.2695 93.674 92.3339C93.4753 92.4861 93.2517 92.6207 93.0033 92.7378ZM125.86 76.3512L134.068 37.5828C134.572 35.1562 134.927 33.0272 135.133 31.1958C135.339 29.3644 135.43 27.9451 135.408 26.9378C135.385 25.9076 135.224 24.969 134.927 24.122C134.629 23.275 134.377 22.7141 134.171 22.4394C133.965 22.1418 133.633 21.7298 133.175 21.2032L133.381 20.0014H162.779C165.114 20.0014 167.267 20.3104 169.236 20.9285C171.227 21.5237 172.945 22.3936 174.387 23.5383C175.852 24.6829 176.883 26.1938 177.478 28.071C178.096 29.9253 178.165 32.0199 177.684 34.355L168.068 79.6478C167.587 81.9828 166.637 84.0775 165.217 85.9318C163.821 87.8089 162.149 89.3198 160.203 90.4645C158.28 91.6091 156.197 92.479 153.953 93.0742C151.709 93.6923 149.42 94.0014 147.084 94.0014H117L117.206 92.7995C121.006 91.1284 123.891 85.6456 125.86 76.3512ZM154.605 24.225L140.628 89.7777H141.795H143.547C143.913 89.7777 144.371 89.7434 144.921 89.6747C145.493 89.606 145.882 89.5144 146.088 89.4C146.294 89.2855 146.569 89.0909 146.912 88.8162C147.279 88.5415 147.531 88.221 147.668 87.8547C147.828 87.5113 148.023 87.0306 148.252 86.4125C148.504 85.8173 148.71 85.1649 148.87 84.4552C149.053 83.7455 149.259 82.8642 149.488 81.8111L160.032 32.1916C160.215 31.253 160.364 30.4632 160.478 29.8222C160.593 29.1584 160.684 28.5403 160.753 27.968C160.821 27.3728 160.833 26.9035 160.787 26.5601C160.764 26.2167 160.707 25.8847 160.615 25.5642C160.524 25.2437 160.375 25.0263 160.169 24.9118C159.986 24.7745 159.757 24.6371 159.482 24.4997C159.207 24.3624 158.875 24.2937 158.486 24.2937C158.12 24.2937 157.708 24.2708 157.25 24.225C156.792 24.1792 156.265 24.1792 155.67 24.225H154.605ZM43.931 37.5828L52.139 76.3512C54.108 85.6456 56.9928 91.1284 60.7935 92.7995L60.9995 94.0014H30.9149C28.5795 94.0014 26.29 93.6923 24.0462 93.0742C21.8025 92.479 19.719 91.6091 17.7958 90.4645C15.8496 89.3198 14.1783 87.8089 12.7816 85.9318C11.3621 84.0775 10.412 81.9828 9.93116 79.6478L0.315057 34.355C-0.165748 32.0199 -0.0970614 29.9253 0.521117 28.071C1.1164 26.1938 2.1467 24.6829 3.61201 23.5383C5.05442 22.3936 6.77158 21.5237 8.76349 20.9285C10.7325 20.3104 12.8847 20.0014 15.22 20.0014H44.6178L44.8239 21.2032C44.366 21.7298 44.034 22.1418 43.8279 22.4394C43.6219 22.7141 43.37 23.275 43.0724 24.122C42.7747 24.969 42.6145 25.9076 42.5916 26.9378C42.5687 27.9451 42.6603 29.3644 42.8663 31.1958C43.0724 33.0272 43.4272 35.1562 43.931 37.5828ZM37.3714 89.7777L23.3937 24.225H22.3291C21.7338 24.1792 21.2072 24.1792 20.7493 24.225C20.2914 24.2708 19.8792 24.2937 19.5129 24.2937C19.1237 24.2937 18.7917 24.3624 18.517 24.4997C18.2422 24.6371 18.0133 24.7745 17.8301 24.9118C17.624 25.0263 17.4752 25.2437 17.3836 25.5642C17.2921 25.8847 17.2348 26.2167 17.2119 26.5601C17.1661 26.9035 17.1776 27.3728 17.2463 27.968C17.315 28.5403 17.4065 29.1584 17.521 29.8222C17.6355 30.4632 17.7843 31.253 17.9675 32.1916L28.5108 81.8111C28.7398 82.8642 28.9459 83.7455 29.129 84.4552C29.2893 85.1649 29.4953 85.8173 29.7472 86.4125C29.9762 87.0306 30.1708 87.5113 30.331 87.8547C30.4684 88.221 30.7203 88.5415 31.0866 88.8162C31.43 89.0909 31.7048 89.2855 31.9108 89.4C32.1169 89.5144 32.5061 89.606 33.0785 89.6747C33.628 89.7434 34.0859 89.7777 34.4522 89.7777H36.2037H37.3714Z" fill="white"/>
</svg>
