<svg width="7842" height="5379" viewBox="0 0 7842 5379" fill="none" xmlns="http://www.w3.org/2000/svg">
<rect width="7842" height="5379" fill="#1425A1"/>
<path fill-rule="evenodd" clip-rule="evenodd" d="M3686.12 2937.53C3687.75 2948.77 3703.92 2949.04 3734.64 2938.35L3737.9 2936.71C3739.8 2935.61 3742.11 2934.38 3744.83 2933.01C3747.55 2931.64 3750.68 2930.13 3754.21 2928.49C3757.74 2926.84 3761.14 2925.2 3764.4 2923.55C3767.67 2921.91 3770.66 2920.27 3773.37 2918.62L3779.9 2915.33L3782.35 2914.1C3786.15 2913.55 3788.87 2913.41 3790.5 2913.69C3792.4 2913.96 3795.39 2914.65 3799.47 2915.74C3803.55 2917.11 3806.4 2917.94 3808.03 2918.21C3822.71 2921.22 3836.85 2923.55 3850.44 2925.2C3864.3 2926.84 3876.53 2928.21 3887.14 2929.31C3896.23 2930.25 3905.83 2930.38 3915.93 2929.71C3926.08 2930.38 3935.73 2930.25 3944.87 2929.31C3955.52 2928.21 3967.81 2926.84 3981.74 2925.2C3995.4 2923.55 4009.6 2921.22 4024.35 2918.21C4025.99 2917.94 4028.85 2917.11 4032.95 2915.74C4037.05 2914.65 4040.05 2913.96 4041.96 2913.69C4043.6 2913.41 4046.33 2913.55 4050.16 2914.1L4052.62 2915.33L4059.17 2918.62C4061.9 2920.27 4064.91 2921.91 4068.18 2923.55C4071.46 2925.2 4074.88 2926.84 4078.43 2928.49C4081.98 2930.13 4085.12 2931.64 4087.85 2933.01C4090.58 2934.38 4092.9 2935.61 4094.81 2936.71L4098.09 2938.35C4128.95 2949.04 4145.21 2948.77 4146.84 2937.53C4146.84 2927.12 4140.02 2918.9 4126.36 2912.87C4112.43 2906.84 4094.68 2903.82 4073.1 2903.82C4071.46 2903.55 4069.82 2902.86 4068.18 2901.77C4066.27 2900.4 4064.09 2898.34 4061.63 2895.6C4060.97 2894.87 4060.35 2894.18 4059.77 2893.55C4059.39 2893.13 4059.02 2892.73 4058.67 2892.35L4059.61 2891.9C4070.76 2886.42 4076.87 2883.41 4077.96 2882.86C4105.15 2869.98 4131.11 2849.56 4155.84 2821.61C4180.85 2793.38 4200.69 2764.74 4215.37 2735.69C4230.32 2706.37 4240.65 2679.1 4246.36 2653.89C4249.34 2640.49 4251.78 2627.64 4253.67 2615.33C4256.14 2608.02 4258.22 2600.46 4259.92 2592.64C4264.29 2570.99 4264.15 2545.92 4259.51 2517.42C4254.59 2488.91 4244.49 2460 4229.19 2430.68C4218.04 2409.63 4204.86 2390.02 4189.65 2371.85C4181.23 2360.55 4171.87 2348.78 4161.55 2336.54C4169.71 2327.77 4182.07 2317.09 4198.66 2304.48C4215.24 2291.6 4228.42 2283.52 4238.21 2280.23C4240.65 2279.41 4243.92 2278.58 4247.99 2277.76C4252.07 2276.66 4255.06 2275.71 4256.96 2274.88C4258.87 2273.79 4259.82 2272.42 4259.82 2270.77C4259.27 2265.02 4247.86 2265.02 4225.57 2270.77C4216.87 2273.51 4205.59 2278.99 4191.72 2287.22C4177.86 2295.44 4165.9 2302.97 4155.84 2309.82C4146.06 2316.4 4140.89 2319.69 4140.35 2319.69L4130.56 2310.65C4108.81 2295.03 4086.93 2282.42 4064.91 2272.83C4043.17 2262.96 4021.15 2256.25 3998.86 2252.69C3996.63 2252.3 3994.47 2251.92 3992.36 2251.57C3968.94 2246.1 3946.28 2243.6 3924.38 2244.05C3921.46 2244.1 3918.65 2244.14 3915.93 2244.2C3913.24 2244.14 3910.43 2244.1 3907.52 2244.05C3886.33 2243.61 3864.42 2245.96 3841.79 2251.12C3838.85 2251.61 3835.8 2252.13 3832.61 2252.69C3810.22 2256.25 3788.1 2262.96 3766.25 2272.83C3744.12 2282.42 3722.14 2295.03 3700.29 2310.65L3690.45 2319.69C3689.91 2319.69 3684.72 2316.4 3674.89 2309.82C3664.78 2302.97 3652.76 2295.44 3638.83 2287.22C3624.9 2278.99 3613.57 2273.51 3604.83 2270.77C3582.43 2265.02 3570.96 2265.02 3570.42 2270.77C3570.42 2272.42 3571.37 2273.79 3573.28 2274.88C3575.2 2275.71 3578.2 2276.66 3582.3 2277.76C3586.39 2278.58 3589.67 2279.41 3592.13 2280.23C3601.96 2283.52 3615.21 2291.6 3631.87 2304.48C3648.53 2317.09 3660.96 2327.77 3669.15 2336.54C3645.93 2363.95 3627.5 2389.02 3613.84 2411.77C3599.91 2434.24 3589.26 2458.08 3581.89 2483.3C3580.29 2488.75 3578.88 2494.25 3577.66 2499.8C3576.22 2505.69 3574.99 2511.56 3573.99 2517.42C3569.37 2545.92 3569.23 2570.99 3573.58 2592.64C3573.61 2592.8 3573.65 2592.95 3573.68 2593.1C3575.67 2611.94 3579.09 2632.2 3583.94 2653.89C3589.67 2679.1 3600.05 2706.37 3615.07 2735.69C3629.82 2764.74 3649.76 2793.38 3674.89 2821.61C3699.74 2849.56 3725.82 2869.98 3753.14 2882.86C3754.23 2883.41 3760.37 2886.42 3771.57 2891.9C3771.88 2892.05 3772.18 2892.19 3772.48 2892.34C3772.81 2892.49 3773.14 2892.65 3773.46 2892.8C3772.69 2893.64 3771.85 2894.57 3770.93 2895.6C3768.48 2898.34 3766.31 2900.4 3764.4 2901.77C3762.77 2902.86 3761.14 2903.55 3759.51 2903.82C3738.04 2903.82 3720.37 2906.84 3706.5 2912.87C3692.91 2918.9 3686.12 2927.12 3686.12 2937.53ZM3784.38 2879.64C3778.41 2876.44 3772.23 2873 3765.84 2869.29C3742.35 2855.86 3720.91 2838.6 3701.52 2817.5C3681.85 2796.4 3666.28 2775.16 3654.81 2753.78C3643.07 2732.13 3633.92 2713.09 3627.36 2696.64C3625.84 2692.82 3624.42 2689.11 3623.12 2685.52C3625.96 2688.17 3628.88 2690.64 3631.89 2692.94C3645.48 2703.36 3659.34 2710.35 3673.48 2713.91C3698.49 2719.94 3722 2721.03 3744.02 2717.2C3766.31 2713.36 3786.69 2706.23 3805.18 2695.82C3823.94 2685.41 3840.38 2672.94 3854.52 2658.41C3860.4 2652.26 3865.83 2646 3870.82 2639.65C3872 2641.91 3873.2 2644.19 3874.4 2646.49C3885.38 2667.61 3894.19 2684.54 3900.83 2697.28L3898.22 2702.27L3894.07 2710.21C3857.37 2779.54 3822.03 2834.35 3788.05 2874.64C3787.82 2875.11 3786.6 2876.77 3784.38 2879.64ZM3793.86 2902C3793.12 2902.35 3792.54 2902.41 3792.13 2902.18C3798.93 2907.39 3806.54 2910.54 3814.97 2911.63C3815.8 2911.74 3816.63 2911.86 3817.46 2911.96C3815.32 2911.13 3813 2910.2 3810.49 2909.17C3802.66 2905.74 3797.12 2903.35 3793.86 2902ZM3915.93 2917.49C3899.82 2916.79 3884.75 2914.98 3870.72 2912.04C3851.05 2907.66 3833.57 2902.32 3818.28 2896.01C3814.21 2894.29 3810.01 2892.42 3805.68 2890.38C3815.18 2879.01 3829.42 2859.51 3848.4 2831.89C3879.44 2786.71 3901.95 2751.41 3915.93 2725.99C3929.98 2751.41 3952.6 2786.71 3983.79 2831.89C4002.66 2859.22 4016.87 2878.6 4026.41 2890.02C4021.84 2892.2 4017.41 2894.19 4013.13 2896.01C3997.91 2902.32 3980.51 2907.66 3960.94 2912.04C3946.97 2914.98 3931.97 2916.79 3915.93 2917.49ZM4013.48 2912.15C4014.77 2911.98 4016.07 2911.81 4017.38 2911.63C4025.85 2910.54 4033.5 2907.39 4040.33 2902.18C4039.83 2902.46 4039.08 2902.32 4038.07 2901.73C4034.95 2903.03 4029.22 2905.5 4020.88 2909.17C4018.2 2910.27 4015.74 2911.27 4013.48 2912.15ZM4047.74 2879.17C4053.42 2876.1 4059.28 2872.81 4065.32 2869.29C4088.7 2855.86 4110.04 2838.6 4129.34 2817.5C4148.91 2796.4 4164.4 2775.16 4175.82 2753.78C4187.51 2732.13 4196.62 2713.09 4203.14 2696.64C4204.15 2694.1 4205.11 2691.61 4206.02 2689.17C4204.48 2690.48 4202.92 2691.73 4201.33 2692.94C4187.68 2703.36 4173.75 2710.35 4159.54 2713.91C4134.42 2719.94 4110.79 2721.03 4088.67 2717.2C4066.27 2713.36 4045.79 2706.23 4027.22 2695.82C4008.37 2685.41 3991.85 2672.94 3977.64 2658.41C3971.63 2652.15 3966.09 2645.79 3961 2639.33C3959.77 2641.69 3958.53 2644.08 3957.27 2646.49C3946.38 2667.53 3937.64 2684.42 3931.04 2697.14C3933.25 2701.35 3935.54 2705.7 3937.9 2710.21C3974.78 2779.54 4010.28 2834.35 4044.42 2874.64C4044.64 2875.08 4045.75 2876.59 4047.74 2879.17ZM3915.93 2668.41C3929.77 2641.99 3938.93 2624.54 3943.41 2616.07L3943.77 2615.36L3944.13 2614.65C3943.88 2614.23 3943.64 2613.8 3943.4 2613.38C3943.2 2613.05 3943.01 2612.71 3942.82 2612.37C3933.81 2596.48 3927.93 2581.13 3925.2 2566.33C3919.47 2547.7 3919.19 2534.82 3924.38 2527.69C3928.48 2521.94 3934.08 2520.57 3941.18 2523.58C3948.01 2526.32 3951.42 2531.39 3951.42 2538.79C3951.42 2541.53 3950.74 2545.64 3949.38 2551.12C3947.74 2556.33 3946.92 2561.13 3946.92 2565.51C3946.64 2569.62 3947.87 2577.71 3950.6 2589.76C3951.32 2592.29 3952.12 2594.82 3953 2597.33C3979.32 2546.42 4004.12 2502.38 4027.4 2465.21C4053.77 2423.28 4084.21 2384.09 4118.74 2347.64C4121.8 2344.46 4124.47 2341.62 4126.74 2339.1C4107.16 2321.09 4087.23 2306.4 4066.96 2295.03C4041.28 2280.78 4016.02 2270.22 3991.16 2263.37C3968.92 2257.31 3947.21 2253.93 3926.04 2253.23C3922.7 2253.16 3919.33 2253.11 3915.93 2253.1C3912.62 2253.11 3909.34 2253.15 3906.08 2253.23C3884.94 2253.91 3863.27 2257.29 3841.06 2263.37C3816.32 2270.22 3791.18 2280.78 3765.63 2295.03C3745.07 2306.61 3724.88 2321.64 3705.05 2340.11C3707.12 2342.37 3709.49 2344.88 3712.17 2347.64C3746.85 2384.09 3777.44 2423.28 3803.94 2465.21C3827.39 2502.48 3852.38 2546.65 3878.9 2597.73C3879.83 2595.09 3880.67 2592.43 3881.43 2589.76C3884.15 2577.71 3885.37 2569.62 3885.1 2565.51C3885.1 2561.13 3884.28 2556.33 3882.65 2551.12C3881.29 2545.64 3880.61 2541.53 3880.61 2538.79C3880.61 2531.39 3884.01 2526.32 3890.81 2523.58C3897.87 2520.57 3903.45 2521.94 3907.52 2527.69C3912.69 2534.82 3912.42 2547.7 3906.71 2566.33C3903.99 2581.13 3898.15 2596.48 3889.17 2612.37C3888.7 2613.21 3888.22 2614.05 3887.73 2614.89C3887.93 2615.29 3888.13 2615.68 3888.33 2616.07C3892.83 2624.54 3902.03 2641.99 3915.93 2668.41ZM3864.46 2627.54C3848.86 2597.91 3835.51 2572.99 3824.42 2552.77C3811.04 2528.38 3797.11 2504.54 3782.63 2481.24C3767.06 2456.3 3747.13 2426.84 3722.82 2392.86C3709.74 2374.43 3699.43 2361.12 3691.89 2352.92L3691.76 2353.05L3691.42 2353.4C3667.22 2378.06 3645.75 2406.7 3626.99 2439.31C3618.09 2454.81 3610.83 2470.34 3605.21 2485.91C3596.43 2532.04 3599.25 2587.77 3613.66 2653.08C3618.54 2661.22 3624.07 2668.75 3630.26 2675.68C3645.21 2691.85 3662.2 2702.26 3681.22 2706.92C3705.69 2712.4 3728.93 2712.81 3750.95 2708.15C3772.97 2703.22 3792.81 2694.72 3810.48 2682.67C3828.42 2670.61 3843.51 2656.49 3855.74 2640.33C3858.89 2636.09 3861.8 2631.83 3864.46 2627.54ZM4139.95 2351.81C4132.36 2359.89 4121.75 2373.58 4108.14 2392.86C4083.94 2426.84 4064.1 2456.3 4048.6 2481.24C4034.2 2504.54 4020.33 2528.38 4007.01 2552.77C3996.03 2572.89 3982.82 2597.67 3967.39 2627.12C3970.14 2631.55 3973.15 2635.95 3976.41 2640.33C3988.7 2656.49 4003.86 2670.61 4021.89 2682.67C4039.64 2694.72 4059.58 2703.22 4081.7 2708.15C4103.83 2712.81 4127.18 2712.4 4151.76 2706.92C4170.88 2702.26 4187.95 2691.85 4202.97 2675.68C4207.39 2670.75 4211.48 2665.52 4215.23 2659.98C4215.74 2657.89 4216.2 2655.86 4216.6 2653.89C4231.55 2586.2 4234.13 2528.79 4224.34 2481.65C4223.52 2477.59 4222.6 2473.53 4221.56 2469.49C4217.15 2459.41 4212.04 2449.36 4206.25 2439.31C4187.4 2406.7 4165.83 2378.06 4141.52 2353.4L4141.08 2352.96C4140.7 2352.57 4140.33 2352.19 4139.95 2351.81ZM3718.33 2933.83C3706.37 2939.31 3699.84 2940.27 3698.76 2936.71C3697.94 2935.34 3698.62 2932.46 3700.8 2928.08C3703.24 2923.69 3705.01 2921.22 3706.1 2920.68C3706.91 2920.13 3708.14 2919.58 3709.77 2919.03C3722.54 2914.1 3735.18 2911.36 3747.69 2910.81C3753.94 2910.54 3755.16 2911.91 3751.36 2914.92C3741.57 2922.05 3730.56 2928.35 3718.33 2933.83ZM4114.48 2933.83C4126.5 2939.31 4133.05 2940.27 4134.14 2936.71C4134.96 2935.34 4134.28 2932.46 4132.1 2928.08C4129.64 2923.69 4127.86 2921.22 4126.77 2920.68C4125.95 2920.13 4124.72 2919.58 4123.08 2919.03C4110.25 2914.1 4097.54 2911.36 4084.98 2910.81C4078.7 2910.54 4077.47 2911.91 4081.29 2914.92C4091.13 2922.05 4102.19 2928.35 4114.48 2933.83ZM3801.32 3124.87C3795.41 3127.04 3792.29 3126.98 3791.97 3124.7C3791.97 3122.59 3793.28 3120.93 3795.9 3119.7C3798.57 3118.48 3801.98 3117.87 3806.12 3117.87C3806.43 3117.81 3806.75 3117.68 3807.06 3117.45C3807.43 3117.18 3807.85 3116.76 3808.32 3116.2C3808.79 3115.65 3809.16 3115.23 3809.42 3114.95C3809.68 3114.62 3810.1 3114.06 3810.67 3113.29C3811.25 3112.51 3811.56 3112.07 3811.62 3111.95C3818.16 3103.79 3824.97 3092.68 3832.05 3078.62C3837.13 3068.4 3840.3 3062.04 3841.55 3059.54C3847.31 3047.6 3852.71 3037.41 3857.74 3028.96C3862.82 3020.46 3868.69 3012.52 3875.34 3005.13C3877.07 3003.24 3878.14 3001.94 3878.56 3001.21L3876.12 2998.63C3870.2 2994.08 3864.02 2990.83 3857.58 2988.88C3851.14 2986.94 3843.91 2985.97 3835.9 2985.97C3831.34 2985.97 3826.65 2986.66 3821.83 2988.05C3817.06 2989.44 3812.22 2991.58 3807.3 2994.47C3802.42 2997.35 3797.66 3001.3 3793 3006.3C3788.33 3011.3 3784.2 3017.1 3780.58 3023.71C3777.12 3030.05 3774.95 3036.41 3774.06 3042.79C3773.22 3049.18 3773.48 3054.77 3774.85 3059.54C3776.26 3064.26 3778.38 3068.29 3781.21 3071.62C3784.09 3074.9 3787.37 3077.01 3791.03 3077.96C3795.75 3079.07 3800.22 3079.15 3804.47 3078.21C3808.71 3077.21 3812.53 3075.49 3815.94 3073.04C3819.4 3070.6 3822.3 3067.74 3824.66 3064.46C3827.02 3061.13 3828.67 3057.71 3829.61 3054.21C3830.13 3051.77 3830.37 3050.13 3830.32 3049.29C3830.32 3048.4 3830.16 3047.43 3829.85 3046.38C3829.58 3045.27 3829.45 3044.43 3829.45 3043.88C3829.45 3042.38 3830.11 3041.35 3831.42 3040.79C3832.78 3040.18 3833.85 3040.46 3834.64 3041.63C3835.63 3043.07 3835.58 3045.68 3834.48 3049.46C3833.96 3052.46 3832.83 3055.57 3831.1 3058.79C3829.37 3062.01 3827.15 3065.13 3824.42 3068.12C3821.7 3071.07 3818.53 3073.6 3814.92 3075.71C3811.36 3077.82 3807.43 3079.26 3803.13 3080.04C3798.89 3080.82 3794.36 3080.6 3789.54 3079.37C3786.82 3078.65 3784.14 3077.24 3781.52 3075.12C3778.91 3073.01 3776.6 3070.18 3774.61 3066.62C3772.62 3063.07 3771.18 3059.13 3770.29 3054.79C3769.45 3050.4 3769.48 3045.32 3770.37 3039.54C3771.31 3033.77 3773.25 3027.91 3776.18 3021.96C3779.27 3015.8 3783.17 3010.24 3787.89 3005.3C3792.6 3000.3 3797.58 2996.3 3802.82 2993.3C3808.11 2990.24 3813.48 2987.94 3818.92 2986.38C3824.37 2984.77 3829.61 2984.02 3834.64 2984.13C3838.25 2984.19 3841.03 2984.3 3842.97 2984.47C3844.9 2984.63 3847.99 2985.11 3852.24 2985.88C3856.53 2986.6 3860.78 2987.97 3864.97 2989.97C3869.21 2991.91 3873.43 2994.47 3877.62 2997.63L3879.5 2999.46C3879.61 2999.46 3880.6 2998.8 3882.49 2997.46C3884.43 2996.08 3886.73 2994.55 3889.4 2992.88C3892.07 2991.22 3894.25 2990.1 3895.92 2989.55C3900.22 2988.38 3902.42 2988.38 3902.52 2989.55C3902.52 2989.88 3902.34 2990.16 3901.97 2990.38C3901.61 2990.55 3901.03 2990.74 3900.24 2990.97C3899.46 2991.13 3898.83 2991.3 3898.36 2991.47C3896.47 2992.13 3893.93 2993.77 3890.74 2996.38C3887.54 2998.94 3885.16 3001.1 3883.59 3002.88C3888.04 3008.44 3891.58 3013.52 3894.19 3018.13C3896.87 3022.68 3898.91 3027.52 3900.32 3032.63C3901.74 3037.74 3902.39 3043.04 3902.29 3048.54C3902.18 3054.04 3901.4 3060.26 3899.93 3067.21C3898.83 3072.32 3896.84 3077.85 3893.96 3083.79C3891.13 3089.68 3887.31 3095.48 3882.49 3101.21C3877.72 3106.87 3872.72 3111.01 3867.48 3113.62C3867.42 3113.65 3867.26 3113.74 3867.01 3113.87C3866.45 3114.16 3865.43 3114.68 3863.94 3115.45C3861.85 3116.51 3860.59 3117.12 3860.17 3117.29C3859.75 3117.45 3858.52 3118.01 3856.48 3118.95C3854.44 3119.84 3853.02 3120.37 3852.24 3120.54C3851.45 3120.7 3850.01 3121.09 3847.92 3121.7C3845.82 3122.31 3844.09 3122.65 3842.73 3122.7C3841.37 3122.76 3839.54 3122.87 3837.23 3123.04C3834.93 3123.26 3832.75 3123.26 3830.71 3123.04C3828.67 3122.81 3826.31 3122.54 3823.64 3122.2C3821.02 3121.87 3818.3 3121.4 3815.47 3120.79C3815.15 3120.73 3814.6 3120.56 3813.82 3120.29C3813.03 3120.06 3812.46 3119.93 3812.09 3119.87C3811.77 3119.81 3811.25 3119.84 3810.52 3119.95L3810.05 3120.2L3808.79 3120.87C3808.26 3121.2 3807.69 3121.54 3807.06 3121.87C3806.43 3122.2 3805.78 3122.54 3805.1 3122.87C3804.41 3123.2 3803.81 3123.51 3803.29 3123.79C3802.76 3124.06 3802.32 3124.31 3801.95 3124.54L3801.32 3124.87ZM3816.8 3119.45C3822.72 3120.29 3827.93 3120.7 3832.44 3120.7C3837 3120.76 3841.16 3120.37 3844.93 3119.54C3848.7 3118.65 3852.05 3117.56 3854.99 3116.29C3857.97 3114.95 3861.33 3113.15 3865.04 3110.87C3869.55 3108.15 3873.66 3104.65 3877.38 3100.37C3881.15 3096.09 3884.14 3091.79 3886.34 3087.46C3888.59 3083.07 3890.34 3079.21 3891.6 3075.87C3892.86 3072.54 3893.72 3069.65 3894.19 3067.21C3897.08 3053.49 3897.57 3041.85 3895.69 3032.29C3893.85 3022.74 3889.22 3013.38 3881.78 3004.21C3880.78 3003.99 3877.96 3007.35 3873.29 3014.3C3868.63 3021.18 3864.81 3027.16 3861.82 3032.21C3859.05 3036.93 3856.38 3041.77 3853.81 3046.71C3851.24 3051.65 3848.05 3057.99 3844.22 3065.71C3840.45 3073.37 3838.02 3078.32 3836.92 3080.54C3834.3 3085.76 3829.74 3093.34 3823.25 3103.29C3816.75 3113.23 3813.14 3117.98 3812.4 3117.54C3813.71 3118.59 3815.18 3119.23 3816.8 3119.45ZM3794.41 3124.54C3794.62 3125.26 3795.88 3125.06 3798.18 3123.95C3800.54 3122.84 3802.66 3121.56 3804.55 3120.12C3805.28 3119.51 3805.04 3119.23 3803.84 3119.29C3801.43 3119.4 3798.99 3119.95 3796.53 3120.95C3796.22 3121.06 3795.98 3121.18 3795.82 3121.29C3795.62 3121.4 3795.27 3121.9 3794.8 3122.79C3794.38 3123.68 3794.25 3124.26 3794.41 3124.54ZM3953.28 3124.7C3953.6 3126.98 3956.71 3127.04 3962.63 3124.87L3963.26 3124.54C3963.63 3124.31 3964.07 3124.06 3964.6 3123.79C3965.12 3123.51 3965.72 3123.2 3966.4 3122.87C3967.09 3122.54 3967.74 3122.2 3968.37 3121.87C3969 3121.54 3969.57 3121.2 3970.1 3120.87L3971.35 3120.2L3971.83 3119.95C3972.56 3119.84 3973.08 3119.81 3973.4 3119.87C3973.76 3119.93 3974.34 3120.06 3975.13 3120.29C3975.91 3120.56 3976.46 3120.73 3976.78 3120.79C3979.6 3121.4 3982.33 3121.87 3984.95 3122.2C3987.62 3122.54 3989.98 3122.81 3992.02 3123.04C3994.06 3123.26 3996.24 3123.26 3998.54 3123.04C4000.84 3122.87 4002.68 3122.76 4004.04 3122.7C4005.4 3122.65 4007.13 3122.31 4009.23 3121.7C4011.32 3121.09 4012.76 3120.7 4013.55 3120.54C4014.33 3120.37 4015.75 3119.84 4017.79 3118.95C4019.83 3118.01 4021.06 3117.45 4021.48 3117.29C4021.9 3117.12 4023.16 3116.51 4025.25 3115.45C4026.33 3114.9 4027.16 3114.47 4027.75 3114.16C4028.05 3114 4028.29 3113.88 4028.47 3113.79C4028.63 3113.7 4028.74 3113.65 4028.79 3113.62C4034.03 3111.01 4039.03 3106.87 4043.8 3101.21C4048.62 3095.48 4052.44 3089.68 4055.27 3083.79C4058.15 3077.85 4060.14 3072.32 4061.24 3067.21C4062.71 3060.26 4063.49 3054.04 4063.6 3048.54C4063.7 3043.04 4063.05 3037.74 4061.63 3032.63C4060.22 3027.52 4058.17 3022.68 4055.5 3018.13C4052.88 3013.52 4049.35 3008.44 4044.9 3002.88C4046.47 3001.1 4048.85 2998.94 4052.05 2996.38C4055.24 2993.77 4057.78 2992.13 4059.67 2991.47C4060.14 2991.3 4060.77 2991.13 4061.55 2990.97C4062.34 2990.74 4062.91 2990.55 4063.28 2990.38C4063.65 2990.16 4063.83 2989.88 4063.83 2989.55C4063.73 2988.38 4061.53 2988.38 4057.23 2989.55C4055.56 2990.1 4053.38 2991.22 4050.71 2992.88C4048.04 2994.55 4045.73 2996.08 4043.8 2997.46C4041.91 2998.8 4040.92 2999.46 4040.81 2999.46L4038.92 2997.63C4034.73 2994.47 4030.52 2991.91 4026.28 2989.97C4022.08 2987.97 4017.84 2986.6 4013.55 2985.88C4009.3 2985.11 4006.21 2984.63 4004.28 2984.47C4002.34 2984.3 3999.56 2984.19 3995.95 2984.13C3990.92 2984.02 3985.68 2984.77 3980.23 2986.38C3974.79 2987.94 3969.42 2990.24 3964.13 2993.3C3958.89 2996.3 3953.91 3000.3 3949.2 3005.3C3944.48 3010.24 3940.58 3015.8 3937.49 3021.96C3934.56 3027.91 3932.62 3033.77 3931.68 3039.54C3930.79 3045.32 3930.76 3050.4 3931.6 3054.79C3932.49 3059.13 3933.93 3063.07 3935.92 3066.62C3937.91 3070.18 3940.21 3073.01 3942.83 3075.12C3945.45 3077.24 3948.12 3078.65 3950.85 3079.37C3955.67 3080.6 3960.2 3080.82 3964.44 3080.04C3968.74 3079.26 3972.66 3077.82 3976.23 3075.71C3979.84 3073.6 3983.01 3071.07 3985.73 3068.12C3988.46 3065.13 3990.68 3062.01 3992.41 3058.79C3994.14 3055.57 3995.27 3052.46 3995.79 3049.46C3996.89 3045.68 3996.94 3043.07 3995.95 3041.63C3995.16 3040.46 3994.09 3040.18 3992.73 3040.79C3991.42 3041.35 3990.76 3042.38 3990.76 3043.88C3990.76 3044.43 3990.89 3045.27 3991.15 3046.38C3991.47 3047.43 3991.63 3048.4 3991.63 3049.29C3991.68 3050.13 3991.44 3051.77 3990.92 3054.21C3989.98 3057.71 3988.33 3061.13 3985.97 3064.46C3983.61 3067.74 3980.7 3070.6 3977.25 3073.04C3973.84 3075.49 3970.02 3077.21 3965.78 3078.21C3961.53 3079.15 3957.05 3079.07 3952.34 3077.96C3948.67 3077.01 3945.4 3074.9 3942.52 3071.62C3939.69 3068.29 3937.57 3064.26 3936.16 3059.54C3934.79 3054.77 3934.53 3049.18 3935.37 3042.79C3936.26 3036.41 3938.43 3030.05 3941.89 3023.71C3945.51 3017.1 3949.64 3011.3 3954.3 3006.3C3958.97 3001.3 3963.73 2997.35 3968.6 2994.47C3973.53 2991.58 3978.37 2989.44 3983.14 2988.05C3987.96 2986.66 3992.65 2985.97 3997.2 2985.97C4005.22 2985.97 4012.45 2986.94 4018.89 2988.88C4025.33 2990.83 4031.51 2994.08 4037.43 2998.63L4039.87 3001.21C4039.45 3001.94 4038.37 3003.24 4036.65 3005.13C4029.99 3012.52 4024.13 3020.46 4019.05 3028.96C4014.02 3037.41 4008.62 3047.6 4002.86 3059.54C4001.6 3062.04 3998.44 3068.4 3993.35 3078.62C3986.28 3092.68 3979.47 3103.79 3972.93 3111.95C3972.87 3112.07 3972.56 3112.51 3971.98 3113.29C3971.41 3114.06 3970.99 3114.62 3970.73 3114.95C3970.46 3115.23 3970.1 3115.65 3969.63 3116.2C3969.15 3116.76 3968.74 3117.18 3968.37 3117.45C3968.05 3117.68 3967.74 3117.81 3967.43 3117.87C3963.29 3117.87 3959.88 3118.48 3957.21 3119.7C3954.59 3120.93 3953.28 3122.59 3953.28 3124.7ZM3993.75 3120.7C3989.24 3120.7 3984.03 3120.29 3978.11 3119.45C3976.49 3119.23 3975.02 3118.59 3973.71 3117.54C3974.45 3117.98 3978.06 3113.23 3984.55 3103.29C3991.05 3093.34 3995.61 3085.76 3998.23 3080.54C3999.33 3078.32 4001.76 3073.37 4005.53 3065.71C4009.36 3057.99 4012.55 3051.65 4015.12 3046.71C4017.68 3041.77 4020.36 3036.93 4023.13 3032.21C4026.12 3027.16 4029.94 3021.18 4034.6 3014.3C4039.27 3007.35 4042.09 3003.99 4043.09 3004.21C4050.53 3013.38 4055.16 3022.74 4057 3032.29C4058.88 3041.85 4058.38 3053.49 4055.5 3067.21C4055.03 3069.65 4054.17 3072.54 4052.91 3075.87C4051.65 3079.21 4049.9 3083.07 4047.65 3087.46C4045.45 3091.79 4042.46 3096.09 4038.69 3100.37C4034.97 3104.65 4030.86 3108.15 4026.35 3110.87C4022.63 3113.15 4019.28 3114.95 4016.3 3116.29C4013.36 3117.56 4010.01 3118.65 4006.24 3119.54C4002.47 3120.37 3998.3 3120.76 3993.75 3120.7ZM3959.49 3123.95C3957.19 3125.06 3955.93 3125.26 3955.72 3124.54C3955.56 3124.26 3955.69 3123.68 3956.11 3122.79C3956.58 3121.9 3956.92 3121.4 3957.13 3121.29C3957.29 3121.18 3957.53 3121.06 3957.84 3120.95C3960.3 3119.95 3962.74 3119.4 3965.15 3119.29C3966.35 3119.23 3966.59 3119.51 3965.85 3120.12C3963.97 3121.56 3961.85 3122.84 3959.49 3123.95ZM4271.26 2968.47L4349.15 2600.6C4353.92 2577.58 4357.29 2557.37 4359.25 2540C4361.2 2522.62 4362.07 2509.15 4361.85 2499.59C4361.64 2489.82 4360.12 2480.91 4357.29 2472.87C4354.47 2464.84 4352.08 2459.52 4350.12 2456.91C4348.17 2454.08 4345.02 2450.17 4340.67 2445.18L4342.63 2433.77H4621.58C4643.74 2433.77 4664.16 2436.71 4682.84 2442.57C4701.74 2448.22 4718.04 2456.47 4731.72 2467.34C4745.63 2478.2 4755.4 2492.53 4761.05 2510.35C4766.92 2527.94 4767.57 2547.82 4763.01 2569.97L4671.76 2999.75C4667.2 3021.9 4658.18 3041.78 4644.71 3059.37C4631.46 3077.18 4615.6 3091.52 4597.14 3102.38C4578.89 3113.24 4559.12 3121.5 4537.83 3127.15C4516.54 3133.01 4494.81 3135.94 4472.65 3135.94H4187.19L4189.14 3124.54C4225.2 3108.68 4252.58 3056.66 4271.26 2968.47ZM4544.02 2473.85L4411.39 3095.87H4422.47H4439.09C4442.56 3095.87 4446.91 3095.54 4452.12 3094.89C4457.55 3094.24 4461.25 3093.37 4463.2 3092.28C4465.16 3091.2 4467.76 3089.35 4471.02 3086.74C4474.5 3084.14 4476.89 3081.09 4478.19 3077.62C4479.71 3074.36 4481.56 3069.8 4483.73 3063.93C4486.12 3058.29 4488.08 3052.1 4489.6 3045.36C4491.34 3038.63 4493.29 3030.26 4495.46 3020.27L4595.51 2549.44C4597.24 2540.54 4598.66 2533.04 4599.74 2526.96C4600.83 2520.66 4601.7 2514.8 4602.35 2509.37C4603 2503.72 4603.11 2499.27 4602.68 2496.01C4602.46 2492.75 4601.92 2489.6 4601.05 2486.56C4600.18 2483.52 4598.77 2481.45 4596.81 2480.37C4595.07 2479.07 4592.9 2477.76 4590.29 2476.46C4587.69 2475.16 4584.54 2474.5 4580.84 2474.5C4577.37 2474.5 4573.46 2474.29 4569.11 2473.85C4564.77 2473.42 4559.77 2473.42 4554.12 2473.85H4544.02ZM3493.85 2600.6L3571.74 2968.47C3590.42 3056.66 3617.8 3108.68 3653.86 3124.54L3655.81 3135.94H3370.35C3348.19 3135.94 3326.46 3133.01 3305.17 3127.15C3283.88 3121.5 3264.11 3113.24 3245.86 3102.38C3227.4 3091.52 3211.54 3077.18 3198.29 3059.37C3184.82 3041.78 3175.8 3021.9 3171.24 2999.75L3079.99 2569.97C3075.43 2547.82 3076.08 2527.94 3081.95 2510.35C3087.6 2492.53 3097.37 2478.2 3111.28 2467.34C3124.96 2456.47 3141.26 2448.22 3160.16 2442.57C3178.84 2436.71 3199.26 2433.77 3221.42 2433.77H3500.37L3502.33 2445.18C3497.98 2450.17 3494.83 2454.08 3492.88 2456.91C3490.92 2459.52 3488.53 2464.84 3485.71 2472.87C3482.88 2480.91 3481.36 2489.82 3481.15 2499.59C3480.93 2509.15 3481.8 2522.62 3483.75 2540C3485.71 2557.37 3489.08 2577.58 3493.85 2600.6ZM3431.61 3095.87L3298.98 2473.85H3288.88C3283.23 2473.42 3278.23 2473.42 3273.89 2473.85C3269.54 2474.29 3265.63 2474.5 3262.16 2474.5C3258.46 2474.5 3255.31 2475.16 3252.71 2476.46C3250.1 2477.76 3247.93 2479.07 3246.19 2480.37C3244.23 2481.45 3242.82 2483.52 3241.95 2486.56C3241.08 2489.6 3240.54 2492.75 3240.32 2496.01C3239.89 2499.27 3240 2503.72 3240.65 2509.37C3241.3 2514.8 3242.17 2520.66 3243.26 2526.96C3244.34 2533.04 3245.76 2540.54 3247.49 2549.44L3347.54 3020.27C3349.71 3030.26 3351.66 3038.63 3353.4 3045.36C3354.92 3052.1 3356.88 3058.29 3359.27 3063.93C3361.44 3069.8 3363.29 3074.36 3364.81 3077.62C3366.11 3081.09 3368.5 3084.14 3371.98 3086.74C3375.24 3089.35 3377.84 3091.2 3379.8 3092.28C3381.75 3093.37 3385.45 3094.24 3390.88 3094.89C3396.09 3095.54 3400.44 3095.87 3403.91 3095.87H3420.53H3431.61Z" fill="white"/>
</svg>
